<?xml version="1.0" encoding="UTF-8" standalone="no"?>
<svg
   xmlns:dc="http://purl.org/dc/elements/1.1/"
   xmlns:cc="http://creativecommons.org/ns#"
   xmlns:rdf="http://www.w3.org/1999/02/22-rdf-syntax-ns#"
   xmlns:svg="http://www.w3.org/2000/svg"
   xmlns="http://www.w3.org/2000/svg"
   xmlns:sodipodi="http://sodipodi.sourceforge.net/DTD/sodipodi-0.dtd"
   xmlns:inkscape="http://www.inkscape.org/namespaces/inkscape"
   version="1.0"
   width="400pt"
   height="355pt"
   viewBox="0 0 400 355"
   preserveAspectRatio="xMidYMid meet"
   id="svg2"
   inkscape:version="0.91 r13725"
   sodipodi:docname="blur.svg">
  <defs
     id="defs44">
    <filter
       height="1"
       width="1"
       y="0"
       x="0"
       style="color-interpolation-filters:sRGB"
       inkscape:label="Posterized Blur"
       id="filter3372"
       inkscape:menu="Morphology"
       inkscape:menu-tooltip="Converts blurred contour to posterized steps">
      <feGaussianBlur
         stdDeviation="4.8 13.6"
         result="blur"
         id="feGaussianBlur3374" />
      <feColorMatrix
         values="1 0 0 0 0 0 1 0 0 0 0 0 1 0 0 0 0 0 50 0 "
         result="colormatrix"
         id="feColorMatrix3376" />
      <feComposite
         in="colormatrix"
         in2="SourceGraphic"
         operator="in"
         id="feComposite3378"
         result="fbSourceGraphic" />
      <feColorMatrix
         result="fbSourceGraphicAlpha"
         in="fbSourceGraphic"
         values="0 0 0 -1 0 0 0 0 -1 0 0 0 0 -1 0 0 0 0 1 0"
         id="feColorMatrix3380" />
      <feGaussianBlur
         id="feGaussianBlur3382"
         stdDeviation="11.4 13.6"
         result="blur"
         in="fbSourceGraphic" />
      <feColorMatrix
         id="feColorMatrix3384"
         values="1 0 0 0 0 0 1 0 0 0 0 0 1 0 0 0 0 0 50 0 "
         result="colormatrix" />
      <feComposite
         id="feComposite3386"
         in2="fbSourceGraphic"
         in="colormatrix"
         operator="in"
         result="fbSourceGraphic" />
      <feColorMatrix
         result="fbSourceGraphicAlpha"
         in="fbSourceGraphic"
         values="0 0 0 -1 0 0 0 0 -1 0 0 0 0 -1 0 0 0 0 1 0"
         id="feColorMatrix3388" />
      <feGaussianBlur
         id="feGaussianBlur3390"
         stdDeviation="13.3 13.6"
         result="blur"
         in="fbSourceGraphic" />
      <feColorMatrix
         id="feColorMatrix3392"
         values="1 0 0 0 0 0 1 0 0 0 0 0 1 0 0 0 0 0 50 0 "
         result="colormatrix" />
      <feComposite
         id="feComposite3394"
         in2="fbSourceGraphic"
         in="colormatrix"
         operator="in"
         result="fbSourceGraphic" />
      <feColorMatrix
         result="fbSourceGraphicAlpha"
         in="fbSourceGraphic"
         values="0 0 0 -1 0 0 0 0 -1 0 0 0 0 -1 0 0 0 0 1 0"
         id="feColorMatrix3396" />
      <feGaussianBlur
         id="feGaussianBlur3398"
         stdDeviation="13.3 13.6"
         result="blur"
         in="fbSourceGraphic" />
      <feColorMatrix
         id="feColorMatrix3400"
         values="1 0 0 0 0 0 1 0 0 0 0 0 1 0 0 0 0 0 50 0 "
         result="colormatrix" />
      <feComposite
         id="feComposite3402"
         in2="fbSourceGraphic"
         in="colormatrix"
         operator="in"
         result="fbSourceGraphic" />
      <feColorMatrix
         result="fbSourceGraphicAlpha"
         in="fbSourceGraphic"
         values="0 0 0 -1 0 0 0 0 -1 0 0 0 0 -1 0 0 0 0 1 0"
         id="feColorMatrix3404" />
      <feGaussianBlur
         id="feGaussianBlur3406"
         stdDeviation="13.3 13.6"
         result="blur"
         in="fbSourceGraphic" />
      <feColorMatrix
         id="feColorMatrix3408"
         values="1 0 0 0 0 0 1 0 0 0 0 0 1 0 0 0 0 0 50 0 "
         result="colormatrix" />
      <feComposite
         id="feComposite3410"
         in2="fbSourceGraphic"
         in="colormatrix"
         operator="in"
         result="fbSourceGraphic" />
      <feColorMatrix
         result="fbSourceGraphicAlpha"
         in="fbSourceGraphic"
         values="0 0 0 -1 0 0 0 0 -1 0 0 0 0 -1 0 0 0 0 1 0"
         id="feColorMatrix3808" />
      <feGaussianBlur
         id="feGaussianBlur3810"
         result="result6"
         stdDeviation="3"
         in="fbSourceGraphic" />
      <feColorMatrix
         id="feColorMatrix3812"
         values="1 0 0 0 0 0 1 0 0 0 0 0 1 0 0 0 0 0 1 0 "
         result="result7"
         in="fbSourceGraphic" />
      <feComposite
         id="feComposite3814"
         in2="result7"
         operator="in"
         in="result6"
         result="result8" />
      <feBlend
         mode="normal"
         id="feBlend4032"
         in2="result8"
         result="result9" />
      <feBlend
         mode="normal"
         id="feBlend4034"
         in2="result9"
         result="fbSourceGraphic" />
      <feColorMatrix
         result="fbSourceGraphicAlpha"
         in="fbSourceGraphic"
         values="0 0 0 -1 0 0 0 0 -1 0 0 0 0 -1 0 0 0 0 1 0"
         id="feColorMatrix4234" />
      <feComposite
         id="feComposite4236"
         in2="fbSourceGraphic"
         result="result1"
         k4="1"
         operator="arithmetic"
         in="fbSourceGraphic"
         k1="0"
         k2="0"
         k3="0" />
      <feGaussianBlur
         id="feGaussianBlur4238"
         in="fbSourceGraphicAlpha"
         result="blur"
         stdDeviation="17" />
      <feComposite
         id="feComposite4240"
         in2="blur"
         in="blur"
         result="composite3"
         operator="in" />
      <feBlend
         id="feBlend4242"
         in2="result1"
         result="fbSourceGraphic"
         mode="multiply" />
      <feComponentTransfer
         id="feComponentTransfer4244"
         result="component1"
         in="fbSourceGraphic">
        <feFuncR
           id="feFuncR4246"
           tableValues="0 0.1 0.2 0.3 0.4 0.5 0.6 0.7 0.8 0.9 1 1"
           type="discrete" />
        <feFuncG
           id="feFuncG4248"
           tableValues="0 0.1 0.2 0.3 0.4 0.5 0.6 0.7 0.8 0.9 1 1"
           type="discrete" />
        <feFuncB
           id="feFuncB4250"
           tableValues="0 0.1 0.2 0.3 0.4 0.5 0.6 0.7 0.8 0.9 1 1"
           type="discrete" />
      </feComponentTransfer>
      <feColorMatrix
         id="feColorMatrix4252"
         result="colormatrix"
         values="1 0 0 0 0 0 1 0 0 0 0 0 1 0 0 -0.2125 -0.7154 -0.0721 1 0 " />
      <feGaussianBlur
         id="feGaussianBlur4254"
         stdDeviation="10"
         in="fbSourceGraphic"
         result="result2" />
      <feColorMatrix
         id="feColorMatrix4256"
         result="result3"
         values="1 0 0 0 0 0 1 0 0 0 0 0 1 0 0 0 0 0 50 0 " />
      <feComponentTransfer
         id="feComponentTransfer4258"
         in="result3"
         result="component1">
        <feFuncR
           id="feFuncR4260"
           type="discrete"
           tableValues="0 0.1 0.2 0.3 0.4 0.5 0.6 0.7 0.8 0.9 1 1" />
        <feFuncG
           id="feFuncG4262"
           type="discrete"
           tableValues="0 0.1 0.2 0.3 0.4 0.5 0.6 0.7 0.8 0.9 1 1" />
        <feFuncB
           id="feFuncB4264"
           type="discrete"
           tableValues="0 0.1 0.2 0.3 0.4 0.5 0.6 0.7 0.8 0.9 1 1" />
      </feComponentTransfer>
      <feComposite
         id="feComposite4266"
         in2="colormatrix"
         operator="in" />
    </filter>
    <filter
       inkscape:collect="always"
       style="color-interpolation-filters:sRGB"
       id="filter6348"
       x="-0.067792557"
       width="1.1355851"
       y="-0.091826148"
       height="1.1836523">
      <feGaussianBlur
         inkscape:collect="always"
         stdDeviation="84.088815"
         id="feGaussianBlur6350" />
    </filter>
  </defs>
  <sodipodi:namedview
     pagecolor="#ffffff"
     bordercolor="#666666"
     borderopacity="1"
     objecttolerance="10"
     gridtolerance="10"
     guidetolerance="10"
     inkscape:pageopacity="0"
     inkscape:pageshadow="2"
     inkscape:window-width="1920"
     inkscape:window-height="1000"
     id="namedview42"
     showgrid="false"
     inkscape:zoom="0.9983453"
     inkscape:cx="546.75655"
     inkscape:cy="236.3841"
     inkscape:window-x="0"
     inkscape:window-y="27"
     inkscape:window-maximized="1"
     inkscape:current-layer="g6"
     inkscape:snap-grids="true"
     inkscape:snap-others="true" />
  <metadata
     id="metadata4">
Created by potrace 1.15, written by Peter Selinger 2001-2017
<rdf:RDF>
  <cc:Work
     rdf:about="">
    <dc:format>image/svg+xml</dc:format>
    <dc:type
       rdf:resource="http://purl.org/dc/dcmitype/StillImage" />
    <dc:title></dc:title>
  </cc:Work>
</rdf:RDF>
</metadata>
  <g
     transform="matrix(0.1,0,0,-0.1,0,355)"
     id="g6"
     style="fill:#000000;stroke:none">
    <path
       d="m 2209.0133,2865 c -51,-16 -103.0133,-55 -132.0133,-110 -29,-56 -36,-209 -12,-291 47,-164 202,-377 413,-568 l 54,-48 -7,-62 c -9,-87 -11,-91 -53,-110 -35,-16 -41,-15 -107,4 -282,81 -485,215 -485,321 0,98 100,104 292,17 73,-33 94,-32 104,7 10,39 1,49 -83,93 -258,134 -459,78 -458,-128 1,-153 128,-285 373,-390 l 103,-44 -33,-13 c -94,-40 -277,-95 -388,-117 -279,-56 -697,-84 -977,-66 -95,6 -182,8 -193,5 -25,-8 -43,-40 -35,-64 31,-97 762,-120 1173,-36 258,52 506,126 660,196 36,16 66,28 67,27 1,-2 -4,-61 -11,-133 -17,-164 -19,-405 -5,-468 31,-133 113,-207 231,-207 93,0 156,40 196,125 60,126 -5,287 -92,230 -25,-16 -26,-19 -19,-86 7,-67 6,-69 -23,-99 -37,-37 -71,-38 -111,-5 -44,38 -55,101 -48,282 5,129 60,579 73,592 16,16 33,-36 43,-124 20,-190 90,-399 176,-530 62,-92 146,-169 233,-212 73,-37 80,-38 182,-38 97,0 109,2 152,28 68,39 98,95 98,178 0,57 -5,73 -36,125 -49,82 -120,152 -416,411 -295,257 -275,225 -238,381 23,95 25,143 8,160 -18,18 -53,15 -72,-7 -18,-20 -51,-106 -61,-163 -8,-40 -14,-45 -33,-26 -8,8 -12,59 -12,164 0,173 -16,285 -61,419 -101,302 -247.9867,437 -429.9867,380 z M 2353,2677 c 48,-50 115,-178 146,-281 25,-82 51,-232 51,-296 l 0,-44 -51,49 c -79,78 -213,248 -248,317 -59,118 -65,225 -16,274 36,36 69,31 118,-19 z m 729,-1310 c 173,-153 261,-244 297,-307 20,-36 20,-39 3,-60 -27,-33 -93,-37 -167,-9 -46,17 -76,38 -131,93 -61,61 -80,89 -132,196 -56,114 -92,219 -92,266 0,15 4,14 28,-8 15,-14 102,-91 194,-171 z"
       id="path8"
       style="filter:url(#filter6348)"
       inkscape:connector-curvature="0"
       sodipodi:nodetypes="ccccccccscsccccccccccccccsccscccscccscscccsccssccccscccscccccscscc" />
  </g>
</svg>
